<mxfile host="drawio-plugin" modified="2023-02-19T20:06:32.130Z" agent="5.0 (Windows NT 6.2; Win64; x64) AppleWebKit/537.36 (KHTML, like Gecko) Chrome/104.0.5112.102 Safari/537.36" etag="sHrxjGujgFR0vulWgcbu" version="20.5.3" type="embed"><diagram name="Страница 1" id="SxEkOZ68pe7GXjSt1YP9"><mxGraphModel dx="394" dy="373" grid="1" gridSize="10" guides="1" tooltips="1" connect="1" arrows="1" fold="1" page="1" pageScale="1" pageWidth="827" pageHeight="1169" math="0" shadow="0"><root><mxCell id="0"/><mxCell id="1" parent="0"/><mxCell id="K_uTGjqvn7J78OWfTbi--6" value="utils" style="shape=folder;fontStyle=1;spacingTop=10;tabWidth=40;tabHeight=14;tabPosition=left;html=1;" parent="1" vertex="1"><mxGeometry x="540" y="40" width="260" height="190" as="geometry"/></mxCell><mxCell id="K_uTGjqvn7J78OWfTbi--1" value="Reader" style="shape=module;align=left;spacingLeft=20;align=center;verticalAlign=top;" parent="1" vertex="1"><mxGeometry x="550" y="80" width="100" height="50" as="geometry"/></mxCell><mxCell id="K_uTGjqvn7J78OWfTbi--2" value="Parser" style="shape=module;align=left;spacingLeft=20;align=center;verticalAlign=top;" parent="1" vertex="1"><mxGeometry x="680" y="80" width="100" height="50" as="geometry"/></mxCell><mxCell id="K_uTGjqvn7J78OWfTbi--4" value="Checker" style="shape=module;align=left;spacingLeft=20;align=center;verticalAlign=top;" parent="1" vertex="1"><mxGeometry x="550" y="160" width="100" height="50" as="geometry"/></mxCell><mxCell id="K_uTGjqvn7J78OWfTbi--5" value="Executor" style="shape=module;align=left;spacingLeft=20;align=center;verticalAlign=top;" parent="1" vertex="1"><mxGeometry x="230" y="40" width="100" height="50" as="geometry"/></mxCell><mxCell id="K_uTGjqvn7J78OWfTbi--8" value="commands" style="shape=folder;fontStyle=1;spacingTop=10;tabWidth=40;tabHeight=14;tabPosition=left;html=1;" parent="1" vertex="1"><mxGeometry x="64" y="190" width="366" height="250" as="geometry"/></mxCell><mxCell id="K_uTGjqvn7J78OWfTbi--9" value="" style="endArrow=open;endFill=1;endSize=12;html=1;rounded=0;entryX=1;entryY=0.5;entryDx=0;entryDy=0;exitX=0;exitY=0;exitDx=0;exitDy=102;exitPerimeter=0;" parent="1" source="K_uTGjqvn7J78OWfTbi--6" target="K_uTGjqvn7J78OWfTbi--5" edge="1"><mxGeometry width="160" relative="1" as="geometry"><mxPoint x="380" y="170" as="sourcePoint"/><mxPoint x="540" y="170" as="targetPoint"/></mxGeometry></mxCell><mxCell id="K_uTGjqvn7J78OWfTbi--10" value="pwd" style="shape=module;align=left;spacingLeft=20;align=center;verticalAlign=top;" parent="1" vertex="1"><mxGeometry x="70" y="220" width="100" height="50" as="geometry"/></mxCell><mxCell id="K_uTGjqvn7J78OWfTbi--11" value="" style="endArrow=open;endFill=1;endSize=12;html=1;rounded=0;entryX=0.5;entryY=1;entryDx=0;entryDy=0;exitX=0;exitY=0;exitDx=203;exitDy=14;exitPerimeter=0;" parent="1" source="K_uTGjqvn7J78OWfTbi--8" target="K_uTGjqvn7J78OWfTbi--5" edge="1"><mxGeometry width="160" relative="1" as="geometry"><mxPoint x="90" y="140" as="sourcePoint"/><mxPoint x="250" y="140" as="targetPoint"/></mxGeometry></mxCell><mxCell id="K_uTGjqvn7J78OWfTbi--12" value="echo" style="shape=module;align=left;spacingLeft=20;align=center;verticalAlign=top;" parent="1" vertex="1"><mxGeometry x="197" y="220" width="100" height="50" as="geometry"/></mxCell><mxCell id="K_uTGjqvn7J78OWfTbi--13" value="cat" style="shape=module;align=left;spacingLeft=20;align=center;verticalAlign=top;" parent="1" vertex="1"><mxGeometry x="70" y="310" width="100" height="50" as="geometry"/></mxCell><mxCell id="K_uTGjqvn7J78OWfTbi--14" value="exit" style="shape=module;align=left;spacingLeft=20;align=center;verticalAlign=top;" parent="1" vertex="1"><mxGeometry x="320" y="220" width="100" height="50" as="geometry"/></mxCell><mxCell id="K_uTGjqvn7J78OWfTbi--15" value="wc" style="shape=module;align=left;spacingLeft=20;align=center;verticalAlign=top;" parent="1" vertex="1"><mxGeometry x="320" y="310" width="100" height="50" as="geometry"/></mxCell><mxCell id="K_uTGjqvn7J78OWfTbi--16" value="Local storage" style="shape=module;align=left;spacingLeft=20;align=center;verticalAlign=top;" parent="1" vertex="1"><mxGeometry x="910" y="151" width="100" height="50" as="geometry"/></mxCell><mxCell id="K_uTGjqvn7J78OWfTbi--19" value="" style="endArrow=open;endFill=1;endSize=12;html=1;rounded=0;entryX=0;entryY=0;entryDx=260;entryDy=146;exitX=0;exitY=0;exitDx=0;exitDy=35;exitPerimeter=0;entryPerimeter=0;" parent="1" source="K_uTGjqvn7J78OWfTbi--16" target="K_uTGjqvn7J78OWfTbi--6" edge="1"><mxGeometry width="160" relative="1" as="geometry"><mxPoint x="920" y="300" as="sourcePoint"/><mxPoint x="1080" y="300" as="targetPoint"/></mxGeometry></mxCell></root></mxGraphModel></diagram></mxfile>